<?xml version="1.0" standalone="no"?>
<!DOCTYPE svg PUBLIC "-//W3C//DTD SVG 20010904//EN"
 "http://www.w3.org/TR/2001/REC-SVG-20010904/DTD/svg10.dtd">
 <svg version="1.0" xmlns="http://www.w3.org/2000/svg" width="3em" height="3em" viewBox="0 0 1208.000000 531.000000" preserveAspectRatio="xMidYMid meet">

<g transform="translate(0.000000,531.000000) scale(0.100000,-0.100000)"
fill="#000000" stroke="none">
<path d="M6010 5281 c-25 -9 -77 -32 -116 -50 l-70 -32 -327 -632 c-179 -347
-325 -633 -324 -634 2 -1 49 6 105 15 l102 16 0 46 c0 77 20 211 40 269 11 30
46 98 77 150 31 53 95 168 141 256 88 168 147 258 206 314 31 30 36 32 42 17
19 -50 -24 -543 -82 -946 -20 -135 -33 -260 -30 -279 6 -41 41 -79 121 -134
33 -23 113 -80 177 -128 65 -48 125 -92 135 -98 10 -5 15 -13 11 -16 -13 -14
-117 26 -272 105 -88 44 -162 78 -164 75 -9 -8 74 -109 198 -240 209 -222 264
-310 264 -415 0 -71 -27 -122 -97 -186 -56 -51 -321 -220 -397 -252 l-45 -19
-45 25 c-211 120 -402 288 -585 517 -127 159 -169 200 -222 214 -20 6 -38 9
-38 8 -1 -1 -93 -179 -204 -396 l-203 -393 45 -47 c24 -25 59 -68 77 -95 37
-55 89 -171 90 -199 0 -16 -5 -15 -49 7 -26 14 -90 52 -142 85 -51 34 -99 61
-106 61 -7 0 -24 -23 -39 -52 l-26 -51 33 -161 c27 -126 34 -185 34 -271 l0
-110 -67 -139 c-38 -76 -68 -145 -68 -153 0 -8 41 -59 90 -114 l91 -100 -27
-49 c-15 -27 -61 -87 -102 -132 -41 -46 -134 -153 -206 -238 -71 -85 -161
-185 -199 -222 -108 -105 -281 -214 -554 -351 -81 -41 -112 -62 -121 -82 l-13
-28 58 7 c133 16 356 114 548 242 224 149 440 346 625 569 118 142 187 211
357 358 158 138 258 247 482 527 293 367 421 509 528 586 33 25 155 93 270
152 115 60 238 128 273 152 92 63 220 189 281 278 29 42 108 145 174 227 67
83 173 223 236 311 63 89 176 249 251 356 76 107 162 221 191 253 l54 60 17
-33 c26 -51 52 -163 81 -353 15 -96 34 -192 44 -214 25 -56 68 -96 154 -144
69 -37 135 -96 122 -109 -3 -3 -66 26 -139 64 -74 38 -138 66 -142 62 -10 -11
13 -154 37 -225 27 -81 74 -151 201 -300 123 -143 204 -256 295 -406 104 -172
199 -262 493 -467 137 -96 269 -201 283 -226 7 -12 -78 21 -382 147 -162 67
-228 49 -250 -68 -34 -178 135 -572 357 -836 89 -106 157 -159 329 -258 164
-94 179 -108 384 -341 223 -254 299 -335 338 -363 l36 -25 1168 7 c642 3 1167
8 1167 10 0 33 -164 209 -660 703 -209 209 -236 223 -595 306 -88 20 -181 47
-207 60 -97 49 -205 169 -384 428 -129 187 -158 213 -333 298 -301 146 -360
205 -590 577 -188 305 -246 372 -470 544 -191 146 -326 263 -437 379 -110 116
-156 199 -224 408 -60 182 -76 214 -137 274 -99 98 -399 269 -531 302 -86 21
-115 10 -220 -87 -79 -74 -191 -143 -246 -151 -16 -2 -70 68 -255 334 -570
814 -612 871 -668 894 -41 17 -48 17 -103 -5z"/>
<path d="M7066 2789 c-63 -85 -120 -203 -176 -364 -47 -132 -164 -406 -235
-545 -53 -104 -111 -142 -350 -227 -82 -29 -168 -65 -189 -80 -46 -33 -91 -97
-226 -323 -181 -304 -366 -660 -419 -805 l-22 -60 46 45 c72 69 173 191 395
475 188 241 348 435 385 465 26 21 59 -5 137 -107 38 -51 84 -103 100 -115 36
-25 33 -28 92 97 78 163 183 479 302 905 96 342 107 381 159 527 26 73 45 140
43 149 -2 10 -16 -3 -42 -37z"/>
</g>
</svg>
